<svg width="78" height="28" viewBox="0 0 78 28" fill="none" xmlns="http://www.w3.org/2000/svg">
<path d="M6.016 13.44C6.88 13.44 7.616 13.5787 8.224 13.856C8.832 14.1333 9.296 14.5333 9.616 15.056C9.936 15.5787 10.096 16.2133 10.096 16.96C10.096 17.7067 9.936 18.3413 9.616 18.864C9.296 19.3867 8.832 19.7867 8.224 20.064C7.616 20.3413 6.88 20.48 6.016 20.48H3.92V24H1.168V13.44H6.016ZM5.584 18.416C6.16 18.416 6.592 18.2987 6.88 18.064C7.17867 17.8187 7.328 17.4507 7.328 16.96C7.328 16.4693 7.17867 16.1067 6.88 15.872C6.592 15.6267 6.16 15.504 5.584 15.504H3.92V18.416H5.584ZM13.1835 15.072C12.6288 15.072 12.2235 14.9707 11.9675 14.768C11.7222 14.5547 11.5995 14.224 11.5995 13.776C11.5995 13.3173 11.7222 12.9867 11.9675 12.784C12.2235 12.5707 12.6288 12.464 13.1835 12.464C13.7275 12.464 14.1275 12.5707 14.3835 12.784C14.6395 12.9867 14.7675 13.3173 14.7675 13.776C14.7675 14.224 14.6395 14.5547 14.3835 14.768C14.1275 14.9707 13.7275 15.072 13.1835 15.072ZM14.5435 16V24H11.8235V16H14.5435ZM19.9837 13.456V21.152C19.9837 21.536 20.0744 21.8133 20.2557 21.984C20.4477 22.144 20.7091 22.224 21.0398 22.224C21.2957 22.224 21.5144 22.1973 21.6957 22.144C21.8877 22.08 22.0584 21.9893 22.2077 21.872L22.4957 23.552C22.2291 23.744 21.8931 23.8933 21.4878 24C21.0824 24.1067 20.6664 24.16 20.2397 24.16C19.6317 24.16 19.1037 24.0747 18.6557 23.904C18.2184 23.7333 17.8771 23.4613 17.6317 23.088C17.3971 22.7147 17.2744 22.2187 17.2637 21.6V14.208L19.9837 13.456ZM22.3678 16V17.936H15.8877V16H22.3678ZM27.5761 15.84C28.3868 15.84 29.0588 15.9573 29.5921 16.192C30.1361 16.416 30.5575 16.72 30.8561 17.104C31.1655 17.4773 31.3575 17.8827 31.4321 18.32L28.9201 19.152C28.8455 18.6933 28.7068 18.352 28.5041 18.128C28.3121 17.8933 28.0295 17.776 27.6561 17.776C27.3148 17.776 27.0268 17.856 26.7921 18.016C26.5681 18.1653 26.3975 18.4107 26.2801 18.752C26.1628 19.0827 26.1041 19.5093 26.1041 20.032C26.1041 20.5547 26.1681 20.9813 26.2961 21.312C26.4241 21.632 26.6055 21.8667 26.8401 22.016C27.0748 22.1547 27.3521 22.224 27.6721 22.224C27.9388 22.224 28.1575 22.176 28.3281 22.08C28.5095 21.9733 28.6588 21.824 28.7761 21.632C28.8935 21.44 28.9681 21.2053 29.0001 20.928L31.4481 21.712C31.3735 22.1813 31.1708 22.6027 30.8401 22.976C30.5201 23.3387 30.0935 23.6267 29.5601 23.84C29.0268 24.0533 28.4028 24.16 27.6881 24.16C26.8135 24.16 26.0508 24 25.4001 23.68C24.7495 23.3493 24.2481 22.8747 23.8961 22.256C23.5441 21.6267 23.3681 20.8747 23.3681 20C23.3681 19.1253 23.5441 18.3787 23.8961 17.76C24.2481 17.1307 24.7388 16.656 25.3681 16.336C26.0081 16.0053 26.7441 15.84 27.5761 15.84ZM33.0222 24V12.608H35.7422V17.456C35.9769 16.9227 36.3129 16.5227 36.7502 16.256C37.1876 15.9787 37.6942 15.84 38.2702 15.84C38.8249 15.84 39.3049 15.9467 39.7102 16.16C40.1262 16.3733 40.4516 16.688 40.6862 17.104C40.9209 17.52 41.0382 18.0427 41.0382 18.672V24H38.3182V19.424C38.3182 18.848 38.2116 18.4533 37.9982 18.24C37.7956 18.016 37.5236 17.904 37.1822 17.904C36.9262 17.904 36.6862 17.968 36.4622 18.096C36.2382 18.224 36.0622 18.4267 35.9342 18.704C35.8062 18.9813 35.7422 19.344 35.7422 19.792V24H33.0222Z" fill="#EE2B69"/>
<path d="M44.4641 15.072C43.9095 15.072 43.5041 14.9707 43.2481 14.768C43.0028 14.5547 42.8801 14.224 42.8801 13.776C42.8801 13.3173 43.0028 12.9867 43.2481 12.784C43.5041 12.5707 43.9095 12.464 44.4641 12.464C45.0081 12.464 45.4081 12.5707 45.6641 12.784C45.9201 12.9867 46.0481 13.3173 46.0481 13.776C46.0481 14.224 45.9201 14.5547 45.6641 14.768C45.4081 14.9707 45.0081 15.072 44.4641 15.072ZM45.8241 16V24H43.1041V16H45.8241ZM51.6484 12.384C52.0857 12.384 52.4697 12.432 52.8004 12.528C53.131 12.6133 53.3764 12.7147 53.5364 12.832L53.2644 14.528C53.147 14.4533 53.0137 14.3947 52.8644 14.352C52.715 14.3093 52.5284 14.288 52.3044 14.288C51.931 14.288 51.6217 14.3733 51.3764 14.544C51.1417 14.7147 51.0244 15.0133 51.0244 15.44V16.48L51.1844 16.928V24H48.4644V15.264C48.4644 14.752 48.5444 14.3147 48.7044 13.952C48.875 13.5893 49.1097 13.2907 49.4084 13.056C49.707 12.8213 50.0484 12.6507 50.4324 12.544C50.8164 12.4373 51.2217 12.384 51.6484 12.384ZM53.4564 16V17.936H47.1844V16H53.4564ZM62.769 16L59.857 24C59.5583 24.8427 59.233 25.5147 58.881 26.016C58.529 26.5173 58.113 26.88 57.633 27.104C57.153 27.328 56.577 27.44 55.905 27.44C55.457 27.44 55.0463 27.392 54.673 27.296C54.2997 27.2 53.9743 27.0667 53.697 26.896L54.241 25.056C54.433 25.1947 54.6357 25.2907 54.849 25.344C55.0623 25.408 55.3343 25.44 55.665 25.44C55.9743 25.44 56.225 25.3867 56.417 25.28C56.6197 25.1733 56.7797 24.9707 56.897 24.672L57.105 24.176L56.177 22L53.777 16H56.769L58.001 20.56L58.385 22.256L58.833 20.496L60.065 16H62.769Z" fill="black"/>
<path d="M76.42 10.9244C76.6722 11.3521 76.4247 11.9236 75.6229 12.5646C74.7345 13.2677 73.8193 13.9383 72.9176 14.6253C72.5533 15.1223 72.0246 15.3727 71.4544 15.4791C70.4771 15.6707 69.8101 14.8603 70.192 13.9434C70.3987 13.4479 70.6512 12.9425 71.2249 12.7443C72.2102 11.9145 73.316 11.264 74.4984 10.764C75.4223 10.3737 76.1471 10.4678 76.42 10.9244Z" fill="black"/>
<path d="M69.7797 6.32204C69.504 6.49578 69.2223 6.69076 69.0138 6.93655C68.0877 8.02595 67.1746 9.12841 66.4816 10.3889C66.3412 10.6427 66.2275 10.9193 66.1523 11.1989C66.0397 11.6209 66.1309 12.0048 66.517 12.2635C66.8993 12.5194 67.2768 12.4492 67.651 12.2214C67.9395 12.0464 68.1734 11.8124 68.3582 11.5397C68.7067 11.0241 69.0324 10.4933 69.2336 10.1781C69.6862 9.39013 70.0284 8.82509 70.3368 8.24251C70.5242 7.88787 70.6848 7.51408 70.8127 7.13306C70.9098 6.84589 70.8763 6.5461 70.6055 6.33886C70.3395 6.13466 70.0407 6.15869 69.7797 6.32204Z" fill="black"/>
<path d="M63.6218 3.52598C63.7544 3.93243 63.9366 4.34674 63.7824 4.79722L63.788 4.80073C64.0058 6.28915 64.2092 7.77607 64.0385 9.28282C63.9902 9.71476 63.8994 10.151 63.7867 10.5731C63.6793 10.9987 63.3951 11.2721 62.945 11.3376C62.4953 11.4033 62.1752 11.1673 61.9226 10.8258C61.6869 10.4949 61.5768 10.1028 61.4937 9.70454C61.2036 8.36595 61.2359 7.01395 61.3343 5.65702C61.1337 4.96412 61.2948 4.28242 61.4541 3.61552C61.5869 3.08859 61.9054 2.68819 62.499 2.64331C62.9841 2.60889 63.425 2.93758 63.6218 3.52598Z" fill="black"/>
</svg>
